<svg xmlns="http://www.w3.org/2000/svg" version="1.1" xmlns:xlink="http://www.w3.org/1999/xlink" xmlns:svgjs="http://svgjs.dev/svgjs" width="2000" height="409" viewBox="0 0 2000 409"><g transform="matrix(1,0,0,1,25.291011320053713,1.370949496274818)"><svg viewBox="0 0 396 81" data-background-color="#ffffff" preserveAspectRatio="xMidYMid meet" height="409" width="2000" xmlns="http://www.w3.org/2000/svg" xmlns:xlink="http://www.w3.org/1999/xlink"><g id="tight-bounds" transform="matrix(1,0,0,1,0.3031403651820028,0.008217552899679959)"><svg viewBox="0 0 395.52 81.00742756702488" height="81.00742756702488" width="395.52"><g><svg viewBox="0 0 509.21908025915275 104.29441686852839" height="81.00742756702488" width="395.52"><g transform="matrix(1,0,0,1,113.6990802591528,32.22848863508001)"><svg viewBox="0 0 395.52 39.83743959836837" height="39.83743959836837" width="395.52"><g id="textblocktransform"><svg viewBox="0 0 395.52 39.83743959836837" height="39.83743959836837" width="395.52" id="textblock"><g><svg viewBox="0 0 395.52 39.83743959836837" height="39.83743959836837" width="395.52"><g transform="matrix(1,0,0,1,0,0)"><svg width="395.52" viewBox="3.08 -38.65 389.01 39.19" height="39.83743959836837" data-palette-color="#1523b7"><path d="M3.08-5.08L7.2-11.35Q9.28-10.18 11.41-9.24 13.55-8.3 15.84-7.65 18.14-7.01 20.67-6.67 23.19-6.32 26.05-6.32L26.05-6.32Q29.49-6.32 31.91-6.77 34.33-7.23 35.85-8.02 37.38-8.81 38.07-9.91 38.77-11.01 38.77-12.3L38.77-12.3Q38.77-14.38 37.04-15.59 35.3-16.8 31.69-16.8L31.69-16.8Q30.1-16.8 28.34-16.59 26.59-16.38 24.79-16.14 23-15.89 21.25-15.69 19.51-15.48 17.97-15.48L17.97-15.48Q15.41-15.48 13.05-16.14 10.69-16.8 8.87-18.12 7.06-19.43 5.98-21.41 4.91-23.39 4.91-26.03L4.91-26.03Q4.91-27.59 5.33-29.13 5.76-30.66 6.7-32.07 7.64-33.47 9.13-34.68 10.62-35.89 12.73-36.77 14.84-37.65 17.61-38.15 20.39-38.65 23.93-38.65L23.93-38.65Q26.49-38.65 29.08-38.37 31.67-38.09 34.12-37.57 36.57-37.06 38.84-36.34 41.11-35.62 43.07-34.74L43.07-34.74 39.67-28.49Q38.06-29.2 36.21-29.8 34.35-30.4 32.32-30.83 30.3-31.27 28.14-31.53 25.98-31.79 23.73-31.79L23.73-31.79Q20.53-31.79 18.47-31.32 16.41-30.86 15.19-30.14 13.96-29.42 13.49-28.53 13.01-27.64 13.01-26.76L13.01-26.76Q13.01-25.05 14.55-23.96 16.09-22.88 19.24-22.88L19.24-22.88Q20.51-22.88 22.16-23.06 23.8-23.24 25.62-23.46 27.44-23.68 29.33-23.86 31.23-24.05 33.01-24.05L33.01-24.05Q36.38-24.05 38.98-23.29 41.58-22.53 43.33-21.13 45.09-19.73 46-17.74 46.9-15.75 46.9-13.28L46.9-13.28Q46.9-9.99 45.37-7.41 43.85-4.83 41.03-3.06 38.21-1.29 34.23-0.38 30.25 0.54 25.37 0.54L25.37 0.54Q22.14 0.54 19.07 0.13 15.99-0.27 13.17-1.01 10.35-1.76 7.8-2.8 5.25-3.83 3.08-5.08L3.08-5.08ZM53.98-16.21L53.98-38.16 61.72-38.16 61.72-17.14Q61.72-14.55 62.42-12.54 63.13-10.52 64.54-9.13 65.94-7.74 68.02-7.02 70.09-6.3 72.85-6.3L72.85-6.3Q75.58-6.3 77.67-7.02 79.76-7.74 81.16-9.13 82.57-10.52 83.27-12.54 83.98-14.55 83.98-17.14L83.98-17.14 83.98-38.16 91.72-38.16 91.72-16.21Q91.72-12.45 90.45-9.38 89.18-6.3 86.77-4.1 84.35-1.9 80.84-0.71 77.34 0.49 72.85 0.49L72.85 0.49Q68.36 0.49 64.85-0.71 61.35-1.9 58.93-4.1 56.52-6.3 55.25-9.38 53.98-12.45 53.98-16.21L53.98-16.21ZM101.17 0L101.17-38.16 108.91-38.16 122.77-24.24 136.64-38.16 144.38-38.16 144.38 0 136.64 0 136.64-27.44 122.77-14.09 108.91-27.44 108.91 0 101.17 0ZM155.27 0L155.27-38.16 163.01-38.16 176.87-24.24 190.74-38.16 198.48-38.16 198.48 0 190.74 0 190.74-27.44 176.87-14.09 163.01-27.44 163.01 0 155.27 0ZM204.43 0L222.35-38.16 230.56-38.16 249.01 0 240.88 0 237.83-6.42 215.54-6.42 212.59 0 204.43 0ZM218.5-12.79L234.78-12.79 226.53-30.13 218.5-12.79ZM254.94 0L254.94-38.16 274.35-38.16Q278.75-38.16 281.97-37.24 285.19-36.33 287.32-34.59 289.44-32.86 290.48-30.37 291.52-27.88 291.52-24.73L291.52-24.73Q291.52-22.61 291-20.69 290.49-18.77 289.43-17.16 288.37-15.55 286.76-14.29 285.14-13.04 282.97-12.21L282.97-12.21 291.27 0 281.8 0 274.62-10.84 274.4-10.84 262.68-10.86 262.68 0 254.94 0ZM262.68-17.55L274.55-17.55Q276.75-17.55 278.39-18.07 280.04-18.58 281.15-19.51 282.26-20.43 282.81-21.77 283.36-23.1 283.36-24.73L283.36-24.73Q283.36-27.93 281.16-29.68 278.97-31.42 274.55-31.42L274.55-31.42 262.68-31.42 262.68-17.55ZM299.69 0L299.69-38.16 307.48-38.16 307.48 0 299.69 0ZM313.75 0L334.89-27.1 338.56-31.57 315.63-31.57 315.63-38.16 352.96-38.16 331.6-11.33 327.79-6.59 351.76-6.59 351.76 0 313.75 0ZM359.09 0L359.09-38.16 391.58-38.16 391.58-31.37 366.83-31.37 366.83-23.75 388.75-23.75 388.75-17.38 366.83-17.38 366.83-6.76 392.09-6.76 392.09 0 359.09 0Z" opacity="1" transform="matrix(1,0,0,1,0,0)" fill="#1523b7" class="wordmark-text-0" data-fill-palette-color="primary" id="text-0"></path></svg></g></svg></g></svg></g></svg></g><g><svg viewBox="0 0 104.29441686852839 104.29441686852839" height="104.29441686852839" width="104.29441686852839"><g><svg xmlns="http://www.w3.org/2000/svg" viewBox="2 2 60 60" x="0" y="0" height="104.29441686852839" width="104.29441686852839" class="icon-icon-0" data-fill-palette-color="accent" id="icon-0"><g fill="#ef2e69" data-fill-palette-color="accent"><path d="M61 5H58V3a1 1 0 0 0-1-1H39a4.982 4.982 0 0 0-4 2.031A4.982 4.982 0 0 0 31 2H13a1 1 0 0 0-1 1V5H9A1 1 0 0 0 8 6V23h2V7h2V21h2V4H31a3 3 0 0 1 3 3V20h2V7a3 3 0 0 1 3-3H56V34H51v2h6a1 1 0 0 0 1-1V7h2V38H52v2h9a1 1 0 0 0 1-1V6A1 1 0 0 0 61 5Z" fill="#ef2e69" data-fill-palette-color="accent"></path><path d="M11 54H26.5l5.7 7.6a1 1 0 0 0 0.8 0.4h8a9.011 9.011 0 0 0 9-9V41A19.021 19.021 0 0 0 31 22H21A19.021 19.021 0 0 0 2 41v4A9.011 9.011 0 0 0 11 54Zm22.5 6L29 54h4.5L38 60Zm13.817-4H37.5L36 54H47.929A6.948 6.948 0 0 1 47.317 56ZM40.5 60L39 58h6.885A6.968 6.968 0 0 1 41 60ZM4 41a17.138 17.138 0 0 1 0.128-2H7V37H4.5A17.033 17.033 0 0 1 17 24.5V29h2V24.128A17.138 17.138 0 0 1 21 24h4v7a3 3 0 0 1-3 3H16a4.908 4.908 0 0 0-1.356 0.211A6.2 6.2 0 0 1 13 30H11a8.18 8.18 0 0 0 1.825 5.17A4.969 4.969 0 0 0 11 39v5.085A6.616 6.616 0 0 0 7.293 45.95l1.414 1.414a4.662 4.662 0 0 1 6.586 0l1.414-1.414A6.616 6.616 0 0 0 13 44.085V39a3 3 0 0 1 3-3h1.067a8.174 8.174 0 0 0 2.347 4.828l0.379 0.379 1.414-1.414-0.379-0.379A6.2 6.2 0 0 1 19.086 36H22a5.006 5.006 0 0 0 5-5V24h4a16.894 16.894 0 0 1 10.174 3.412l-2.881 2.881 1.414 1.414 3-3A17.031 17.031 0 0 1 46.474 34H38a3 3 0 0 1-3-3V29H33v2a5.006 5.006 0 0 0 5 5h9.247A16.932 16.932 0 0 1 48 41V52H32V48H30v4H24a3 3 0 0 1-3-3V47a3 3 0 0 1 3-3H37.429a6.609 6.609 0 0 0 1.864 3.707l1.414-1.414a4.664 4.664 0 0 1 0-6.586l-1.414-1.414A6.609 6.609 0 0 0 37.429 42h-6.3a4.647 4.647 0 0 1 0.239-6.293L29.95 34.293A6.665 6.665 0 0 0 28.718 42H24a5.006 5.006 0 0 0-5 5v2a4.948 4.948 0 0 0 1.026 3H11a7.008 7.008 0 0 1-7-7Z" fill="#ef2e69" data-fill-palette-color="accent"></path><rect x="39" y="8" width="14" height="2" fill="#ef2e69" data-fill-palette-color="accent"></rect><rect x="39" y="13" width="8" height="2" fill="#ef2e69" data-fill-palette-color="accent"></rect><rect x="49" y="13" width="4" height="2" fill="#ef2e69" data-fill-palette-color="accent"></rect><rect x="39" y="18" width="14" height="2" fill="#ef2e69" data-fill-palette-color="accent"></rect><rect x="44" y="23" width="9" height="2" fill="#ef2e69" data-fill-palette-color="accent"></rect><rect x="49" y="28" width="4" height="2" fill="#ef2e69" data-fill-palette-color="accent"></rect><rect x="17" y="8" width="14" height="2" fill="#ef2e69" data-fill-palette-color="accent"></rect><rect x="17" y="13" width="10" height="2" fill="#ef2e69" data-fill-palette-color="accent"></rect><rect x="29" y="13" width="2" height="2" fill="#ef2e69" data-fill-palette-color="accent"></rect><rect x="17" y="18" width="4" height="2" fill="#ef2e69" data-fill-palette-color="accent"></rect><rect x="23" y="18" width="8" height="2" fill="#ef2e69" data-fill-palette-color="accent"></rect></g></svg></g></svg></g></svg></g><defs></defs></svg><rect width="395.52" height="81.00742756702488" fill="none" stroke="none" visibility="hidden"></rect></g></svg></g></svg>